<?xml version="1.0" standalone="no"?>
<!DOCTYPE svg PUBLIC "-//W3C//DTD SVG 1.1//EN" "http://www.w3.org/Graphics/SVG/1.1/DTD/svg11.dtd" >
<svg xmlns="http://www.w3.org/2000/svg">
  <metadata>Generated by IcoMoon</metadata>
  <defs>
    <font id="icomoon" horiz-adv-x="1024">
      <font-face units-per-em="1024" ascent="960" descent="-64"/>
      <missing-glyph horiz-adv-x="1024"/>
      <glyph unicode="&#x20;" horiz-adv-x="512" d=""/>
      <glyph unicode="&#xe900;" glyph-name="loading"
             d="M847.184 694.392c6.828 10.18 10.816 22.428 10.816 35.608 0 35.35-28.66 64-64 64-13.18 0-25.428-3.988-35.61-10.818-68.972 50.788-154.17 80.818-246.39 80.818-229.75 0-416-186.25-416-416 0-229.754 186.25-416 416-416 229.746 0 416 186.246 416 416 0 92.222-30.032 177.42-80.816 246.392zM783.66 176.336c-35.292-35.292-76.382-62.998-122.128-82.348-47.344-20.024-97.652-30.178-149.532-30.178s-102.19 10.154-149.534 30.178c-45.746 19.35-86.834 47.054-122.128 82.348s-63 76.382-82.348 122.128c-20.026 47.344-30.18 97.656-30.18 149.536s10.154 102.19 30.178 149.534c19.348 45.746 47.054 86.834 82.348 122.128s76.382 63 122.128 82.348c47.346 20.026 97.656 30.18 149.536 30.18 51.878 0 102.188-10.154 149.532-30.178 26.892-11.374 52.16-25.66 75.604-42.654-4.55-8.796-7.136-18.772-7.136-29.358 0-35.35 28.654-64 64-64 10.586 0 20.56 2.586 29.356 7.136 16.996-23.442 31.282-48.71 42.654-75.602 20.026-47.344 30.18-97.654 30.18-149.534 0-51.878-10.154-102.192-30.18-149.536-19.35-45.746-47.054-86.836-82.35-122.128zM704.006 448c0-106.039-85.961-192-192-192s-192 85.961-192 192c0 106.039 85.961 192 192 192s192-85.961 192-192z"/>
      <glyph unicode="&#xe901;" glyph-name="arrow-right"
             d="M320 729.2l41.4 38.8 342.6-320-342.6-320-41.4 38.6 301 281.4z"/>
      <glyph unicode="&#xe902;" glyph-name="step-complete"
             d="M512 864c-229.8 0-416-186.2-416-416s186.2-416 416-416c229.8 0 416 186.2 416 416s-186.2 416-416 416zM447.8 300.6c-4.8-4.8-11.6-8.8-17.6-8.8s-12.8 4.2-17.8 9l-112 112 35.6 35.6 94.4-94.4 249.6 251.4 35-36.2-267.2-268.6z"/>
      <glyph unicode="&#xe903;" glyph-name="step-progress"
             d="M512 864c-229.8 0-416-186.2-416-416s186.2-416 416-416c229.8 0 416 186.2 416 416s-186.2 416-416 416zM512 66.6c-210.2 0-381.4 171-381.4 381.4 0 210.2 171 381.4 381.4 381.4 210.2 0 381.4-171 381.4-381.4 0-210.2-171.2-381.4-381.4-381.4zM512 768c-176.8 0-320-143.2-320-320s143.2-320 320-320c176.8 0 320 143.2 320 320s-143.2 320-320 320z"/>
      <glyph unicode="&#xe904;" glyph-name="step-locked"
             d="M512 864c-229.8 0-416-186.2-416-416s186.2-416 416-416c229.8 0 416 186.2 416 416s-186.2 416-416 416zM512 66.6c-210.2 0-381.4 171-381.4 381.4 0 210.2 171 381.4 381.4 381.4 210.2 0 381.4-171 381.4-381.4 0-210.2-171.2-381.4-381.4-381.4z"/>
      <glyph unicode="&#xe905;" glyph-name="download-thin"
             d="M386.4 197.6l-23.2-22.8 149-146.8 149 146.8-23.2 22.8-109.4-107.6v484.2h-32.8v-484.2zM798.4 631.2c0 2.4 0.4 4.6 0.4 7 0 127-105.8 229.8-233.6 229.8-92.2 0-171.6-53.6-208.8-130.8-16.2 8-34.2 12.6-53.6 12.6-59.2 0-108.2-46.6-117.8-102.6-70.4-24-121.2-86.8-121.2-164.8 0-98.2 80.2-178.4 179.2-178.4h183v32h-181.4c-81.8 0-148.4 66.4-148.4 147.4 0 62.8 40.4 115 100.4 135.4l16.8 5.6 3 17.4c7.2 42.6 44.2 77.6 87.8 77.6 13.8 0 27.4-3.2 39.8-9.4l27-13.4 13 27.2c33.2 68.8 104.2 113.2 180.8 113.2 110.6 0 201.8-85.6 201.8-195.2 0-26.2-0.4-40.2-0.4-40.2l30.4-0.2c73.4-1 131.2-60 131.2-132.8 0-72.6-59.6-132.2-133-132.6l-6.4-0.2h-194.4v-32h202c90 0 163.8 74.4 163.8 164.2 0 90-70.8 163-161.4 163.2z"/>
      <glyph unicode="&#xe906;" glyph-name="upload-thin"
             d="M386.6 439.2l-23.2 23.2 149 148.6 149-148.6-23.4-23.2-109.2 109.2v-483.6h-33v483.6zM798.6 592.8c0 2.4 0.4 4.8 0.4 7.2 0 128.6-105.6 232.8-233.6 232.8-92.2 0-171.6-54.2-208.8-132.6-16.2 8.2-34.2 12.8-53.6 12.8-59.2 0-108.2-47.2-117.8-104-70.4-24.2-121.2-93.4-121.2-172.6 0-99.4 80.2-180.4 179.2-180.4h182.8v32h-181.2c-81.8 0-148.4 67-148.4 149.2 0 63.6 40.4 122.4 100.4 143.2l16.8 5.8 3 17.6c7.2 43.2 44.2 78.6 87.8 78.6 13.8 0 27.4-3.2 39.8-9.6l27-13.6 13 27.4c33.2 69.8 104.2 114.8 180.8 114.8 110.6 0 201.8-86.6 201.8-197.8 0-26.6-0.4-40.6-0.4-40.6l30.4-0.2c73.2-1 131.2-66.8 131.2-140.6 0-73.6-59.6-133.8-133-134.2h-201v-32h202c90 0 164 74.6 164 165.6s-71 171-161.4 171.2z"/>
      <glyph unicode="&#xe907;" glyph-name="home-thin"
             d="M512 736l-320-256v-416h224v256h192v-256h224v416l-320 256zM800 96h-160v256h-256v-256h-160v368.62l288 230.4 288-230.4v-368.62zM512 832l-192-153.6v89.6h-128v-191.998l-64-50.998 23.020-22.768 360.98 288.784 360.98-288.786 23.020 22.77-384 306.996zM288 652.802l-64-51.2v134.398h64v-83.198z"/>
      <glyph unicode="&#xe908;" glyph-name="information-thin"
             d="M543 616c0-22.091-17.909-40-40-40s-40 17.909-40 40c0 22.091 17.909 40 40 40s40-17.909 40-40zM544 272v256h-96v-16h32v-240h-32v-16h128v16zM512 864c-229.8 0-416-186.2-416-416s186.2-416 416-416c229.8 0 416 186.2 416 416s-186.2 416-416 416zM512 66.6c-210.2 0-381.4 171-381.4 381.4 0 210.2 171 381.4 381.4 381.4 210.2 0 381.4-171 381.4-381.4 0-210.2-171.2-381.4-381.4-381.4z"/>
      <glyph unicode="&#xe909;" glyph-name="loading-thin"
             d="M851 690.4c9.4 11.8 15 27 15 43.2 0 38.4-31.2 69.8-69.6 69.8-16.4 0-31.4-5.6-43.2-15-68 48.4-150 75.6-239.8 75.6-229.8 0-417.4-185-417.4-415.2s187.4-416.8 417.2-416.8c229.8 0 414.8 186.6 414.8 416.8 0 90-28.6 173.4-77 241.6zM796 777.4c24.4 0 44-19.8 44-44 0-24.4-19.8-44-44-44-24.4 0-44 19.8-44 44s19.6 44 44 44zM783.6 176.6c-35.2-35.2-76.4-63.2-122.2-82.6-47.4-20-96.4-30.4-148.4-30.4-51.8 0-103.4 10.2-150.8 30.4-45.8 19.4-86.8 47-122.2 82.6-35.2 35.2-63 76.6-82.4 122.4-20 47.4-30.2 97.8-30.2 149.8 0 51.8 10.2 102.4 30.2 149.8 19.4 45.8 47 87 82.4 122.4s76.4 63.2 122.2 82.6c47.4 20 98.8 28.2 150.8 28.2 51.8 0 101-8 148.4-28.2 25.4-10.8 49.4-24.2 71.8-40-4.2-9-6.6-19-6.6-29.8 0-38.4 31.2-69.8 69.6-69.8 10.6 0 20.6 2.4 29.8 6.6 15.8-22.4 29.2-46.4 40-72 20-47.4 30.2-97.8 30.2-149.8 0-51.8-10.2-102.4-30.2-149.8-19.4-45.8-47-87-82.4-122.4zM513 639.8c-106 0-192-85.6-192-191.8s85.8-192.2 192-192.2c106 0 192 86 192 192.2s-86 191.8-192 191.8zM513 288.4c-88.2 0-159.4 71.6-159.4 159.6 0 88.2 71.2 159.2 159.4 159.2s159.4-71.2 159.4-159.2c0-88.2-71.4-159.6-159.4-159.6z"/>
      <glyph unicode="&#xe90a;" glyph-name="locked-thin"
             d="M720 512v144c0 114.86-93.124 208-207.968 208-114.908 0-208.032-93.14-208.032-208v-144h-112v-480h640v480h-112zM336 656c0 97.046 78.968 176 176.032 176 97.030 0 175.968-78.954 175.968-176v-144h-352v144zM800 64h-576v416h576v-416zM512 384c-35.346 0-64-28.654-64-64 0-29.82 20.396-54.878 48-61.984v-66.016h32v66.016c27.604 7.106 48 32.164 48 61.984 0 35.346-28.654 64-64 64zM512 288c-17.644 0-32 14.356-32 32s14.356 32 32 32 32-14.356 32-32-14.356-32-32-32z"/>
      <glyph unicode="&#xe90b;" glyph-name="home"
             d="M512 736l-320-256v-416h224v256h192v-256h224v416l-320 256zM512 832l-192-153.6v89.6h-128v-191.998l-64-50.998 23.020-22.768 360.98 288.784 360.98-288.786 23.020 22.77-384 306.996z"/>
      <glyph unicode="&#xe90c;" glyph-name="print-thin"
             d="M865 736h-65v96h-576v-96h-63c-35.2 0-65-27.6-65-62.6v-316.8c0-35 29.8-64.6 65-64.6h95v-228h512v228h97c35.2 0 63 29.6 63 64.6v316.8c0 35-27.8 62.6-63 62.6zM256 800h512v-64h-512v64zM736 96h-448v384h448v-384zM896 356.6c0-17.4-13.4-32.6-31-32.6h-97v188h-512v-188h-95c-17.6 0-33 15.2-33 32.6v316.8c0 17.4 15.4 30.6 33 30.6h704c17.6 0 31-13.2 31-30.6v-316.8z"/>
      <glyph unicode="&#xe90d;" glyph-name="locked"
             d="M720 512v144c0 114.86-93.124 208-207.968 208-114.908 0-208.032-93.14-208.032-208v-144h-112v-480h640v480h-112zM528 258.016v-66.016h-32v66.016c-27.604 7.106-48 32.164-48 61.984 0 35.346 28.654 64 64 64s64-28.654 64-64c0-29.82-20.396-54.878-48-61.984zM688 512h-352v144c0 97.046 78.968 176 176.032 176 97.030 0 175.968-78.954 175.968-176v-144zM512 352c-17.644 0-32-14.356-32-32s14.356-32 32-32 32 14.356 32 32-14.356 32-32 32z"/>
      <glyph unicode="&#xe90e;" glyph-name="unlocked"
             d="M512 352c-17.644 0-32-14.356-32-32s14.356-32 32-32 32 14.356 32 32-14.356 32-32 32zM336 512v144c0 97.046 78.968 176 176.032 176 97.030 0 175.968-78.954 175.968-176v-16h32v16c0 114.86-93.124 208-207.968 208-114.908 0-208.032-93.14-208.032-208v-144h-112v-480h640v480h-496zM528 258.016v-66.016h-32v66.016c-27.604 7.106-48 32.164-48 61.984 0 35.346 28.654 64 64 64s64-28.654 64-64c0-29.82-20.396-54.878-48-61.984z"/>
      <glyph unicode="&#xe90f;" glyph-name="unlocked-thin"
             d="M512 384c-35.346 0-64-28.654-64-64 0-29.82 20.396-54.878 48-61.984v-66.016h32v66.016c27.604 7.106 48 32.164 48 61.984 0 35.346-28.654 64-64 64zM512 288c-17.644 0-32 14.356-32 32s14.356 32 32 32 32-14.356 32-32-14.356-32-32-32zM336 512v144c0 97.046 78.968 176 176.032 176 97.030 0 175.968-78.954 175.968-176v-16h32v16c0 114.86-93.124 208-207.968 208-114.908 0-208.032-93.14-208.032-208v-144h-112v-480h640v480h-496zM800 64h-576v416h576v-416z"/>
      <glyph unicode="&#xe910;" glyph-name="checkmark-circle-thin"
             d="M680.2 605.4l-249.6-251.4-94.4 94.4-35.6-35.6 112-112c5-5 11.8-9 17.8-9s12.6 4 17.6 8.8l267.4 268.8-35.2 36zM512 864c-229.8 0-416-186.2-416-416s186.2-416 416-416c229.8 0 416 186.2 416 416s-186.2 416-416 416zM512 66.6c-210.2 0-381.4 171-381.4 381.4 0 210.2 171 381.4 381.4 381.4 210.2 0 381.4-171 381.4-381.4 0-210.2-171.2-381.4-381.4-381.4z"/>
      <glyph unicode="&#xe911;" glyph-name="close-circle"
             d="M806.2 742.2c-162.4 162.4-425.8 162.4-588.4 0s-162.4-425.8 0-588.4c162.4-162.4 425.8-162.4 588.4 0s162.4 426 0 588.4zM704 279.6l-23.6-23.6-168.8 168.4-168-167.6-23.6 23.6 168 167.6-168 167.6 23.6 23.6 168-167.6 168.8 168.4 23.6-23.6-168.8-168.4 168.8-168.4z"/>
      <glyph unicode="&#xe912;" glyph-name="close-circle-thin"
             d="M806.2 742.2c-162.4 162.4-425.8 162.4-588.4 0s-162.4-425.8 0-588.4c162.4-162.4 425.8-162.4 588.4 0s162.4 426 0 588.4zM781.6 178.4c-148.6-148.6-390.6-148.6-539.2 0s-148.6 390.6 0 539.2 390.6 148.6 539.2 0c148.8-148.6 148.8-390.6 0-539.2zM680.4 640l-168.8-168.4-168 167.6-23.6-23.6 168-167.6-168-167.6 23.6-23.6 168 167.6 168.8-168.4 23.6 23.6-168.8 168.4 168.8 168.4z"/>
      <glyph unicode="&#xe913;" glyph-name="plus-circle"
             d="M512 864c-229.8 0-416-186.2-416-416s186.2-416 416-416c229.8 0 416 186.2 416 416s-186.2 416-416 416zM768 430h-240v-238h-34v238h-238v34h238v240h34v-240h240v-34z"/>
      <glyph unicode="&#xe914;" glyph-name="plus-circle-thin"
             d="M512 864c-229.8 0-416-186.2-416-416s186.2-416 416-416c229.8 0 416 186.2 416 416s-186.2 416-416 416zM512 66.6c-210.2 0-381.4 171-381.4 381.4s171.2 381.4 381.4 381.4 381.4-171.2 381.4-381.4-171.2-381.4-381.4-381.4zM528.2 704h-33.6v-239.8h-238.6v-33.6h238.6v-238.6h33.6v238.6h239.8v33.6h-239.8z"/>
      <glyph unicode="&#xe915;" glyph-name="minus-circle"
             d="M512 864c-229.8 0-416-186.2-416-416s186.2-416 416-416c229.8 0 416 186.2 416 416s-186.2 416-416 416zM768 430h-512v34h512v-34z"/>
      <glyph unicode="&#xe916;" glyph-name="minus-circle-thin"
             d="M512 864c-229.8 0-416-186.2-416-416s186.2-416 416-416c229.8 0 416 186.2 416 416s-186.2 416-416 416zM512 66.6c-210.2 0-381.4 171-381.4 381.4 0 210.2 171 381.4 381.4 381.4 210.2 0 381.4-171 381.4-381.4 0-210.2-171.2-381.4-381.4-381.4zM256 464h512v-34h-512v34z"/>
      <glyph unicode="&#xe917;" glyph-name="clock"
             d="M512 864c-229.8 0-416-186.2-416-416s186.2-416 416-416c229.8 0 416 186.2 416 416s-186.2 416-416 416zM546 414h-226v34h192v256h34v-290z"/>
      <glyph unicode="&#xe918;" glyph-name="clock-thin"
             d="M512 864c-229.8 0-416-186.2-416-416s186.2-416 416-416c229.8 0 416 186.2 416 416s-186.2 416-416 416zM512 66.6c-210.2 0-381.4 171-381.4 381.4 0 210.2 171 381.4 381.4 381.4 210.2 0 381.4-171 381.4-381.4 0-210.2-171.2-381.4-381.4-381.4zM512 448h-192v-34.6h226.6v290.6h-34.6z"/>
      <glyph unicode="&#xe919;" glyph-name="time"
             d="M512 896c-247.4 0-448-200.6-448-448s200.6-448 448-448c247.4 0 448 200.6 448 448s-200.6 448-448 448zM512 816c8.8 0 16-7.2 16-16s-7.2-16-16-16-16 7.2-16 16 7.2 16 16 16zM160 432c-8.8 0-16 7.2-16 16s7.2 16 16 16 16-7.2 16-16c0-8.8-7.2-16-16-16zM215.2 258.2c-7.6-4.4-17.4-1.8-21.8 5.8s-1.8 17.4 5.8 21.8c7.6 4.4 17.4 1.8 21.8-5.8s1.8-17.4-5.8-21.8zM221 616c-4.4-7.6-14.2-10.2-21.8-5.8s-10.2 14.2-5.8 21.8 14.2 10.2 21.8 5.8c7.6-4.4 10.2-14.2 5.8-21.8zM328 766.6c7.6 4.4 17.4 1.8 21.8-5.8s1.8-17.4-5.8-21.8c-7.6-4.4-17.4-1.8-21.8 5.8s-1.8 17.4 5.8 21.8zM349.8 135.2c-4.4-7.6-14.2-10.2-21.8-5.8s-10.2 14.2-5.8 21.8c4.4 7.6 14.2 10.2 21.8 5.8s10.2-14.2 5.8-21.8zM512 80c-8.8 0-16 7.2-16 16s7.2 16 16 16 16-7.2 16-16-7.2-16-16-16zM528 420.2v-244.2c0-8.8-7.2-16-16-16s-16 7.2-16 16v244.4c-4.8 2.8-8.8 6.6-11.8 11.6-6 10.4-5.4 23 0.4 32.6l-75.2 125.8c-4.6 7.6-2 17.4 5.4 22 7.6 4.6 17.4 2 22-5.4l76-126.8c10.8-0.2 21.2-6 26.8-16 9-15.6 3.8-35-11.6-44zM696 129.4c-7.6-4.4-17.4-1.8-21.8 5.8s-1.8 17.4 5.8 21.8c7.6 4.4 17.4 1.8 21.8-5.8s1.8-17.4-5.8-21.8zM701.8 744.8c-4.4-7.6-14.2-10.2-21.8-5.8s-10.2 14.2-5.8 21.8c4.4 7.6 14.2 10.2 21.8 5.8s10.2-14.2 5.8-21.8zM830.6 264c-4.4-7.6-14.2-10.2-21.8-5.8s-10.2 14.2-5.8 21.8c4.4 7.6 14.2 10.2 21.8 5.8s10.4-14.2 5.8-21.8zM824.8 610.2c-7.6-4.4-17.4-1.8-21.8 5.8s-1.8 17.4 5.8 21.8c7.6 4.4 17.4 1.8 21.8-5.8 4.6-7.6 1.8-17.4-5.8-21.8zM864 432c-8.8 0-16 7.2-16 16s7.2 16 16 16 16-7.2 16-16c0-8.8-7.2-16-16-16z"/>
      <glyph unicode="&#xe91a;" glyph-name="ios-time-thin"
             d="M512 896c-247.4 0-448-200.6-448-448s200.6-448 448-448c247.4 0 448 200.6 448 448s-200.6 448-448 448zM806.2 153.8c-38.2-38.2-82.8-68.2-132.2-89.2-51.2-21.6-105.8-32.6-162-32.6s-110.6 11-162 32.6c-49.6 21-94 51-132.2 89.2s-68.2 82.8-89.2 132.2c-21.6 51.4-32.6 105.8-32.6 162s11 110.6 32.6 162c21 49.6 51 94 89.2 132.2s82.8 68.2 132.2 89.2c51.4 21.6 105.8 32.6 162 32.6s110.6-11 162-32.6c49.6-21 94-51 132.2-89.2s68.2-82.8 89.2-132.2c21.6-51.2 32.6-105.8 32.6-162s-11-110.6-32.6-162c-21-49.4-51-94-89.2-132.2zM528 800c0-8.837-7.163-16-16-16s-16 7.163-16 16c0 8.837 7.163 16 16 16s16-7.163 16-16zM528 96c0-8.837-7.163-16-16-16s-16 7.163-16 16c0 8.837 7.163 16 16 16s16-7.163 16-16zM880 448c0-8.837-7.163-16-16-16s-16 7.163-16 16c0 8.837 7.163 16 16 16s16-7.163 16-16zM176 448c0-8.837-7.163-16-16-16s-16 7.163-16 16c0 8.837 7.163 16 16 16s16-7.163 16-16zM352 752.8c0-8.837-7.163-16-16-16s-16 7.163-16 16c0 8.837 7.163 16 16 16s16-7.163 16-16zM704 143.2c0-8.837-7.163-16-16-16s-16 7.163-16 16c0 8.837 7.163 16 16 16s16-7.163 16-16zM832.8 624c0-8.837-7.163-16-16-16s-16 7.163-16 16c0 8.837 7.163 16 16 16s16-7.163 16-16zM223.2 272c0-8.837-7.163-16-16-16s-16 7.163-16 16c0 8.837 7.163 16 16 16s16-7.163 16-16zM223.2 624c0-8.837-7.163-16-16-16s-16 7.163-16 16c0 8.837 7.163 16 16 16s16-7.163 16-16zM832.8 272c0-8.837-7.163-16-16-16s-16 7.163-16 16c0 8.837 7.163 16 16 16s16-7.163 16-16zM704 752.8c0-8.837-7.163-16-16-16s-16 7.163-16 16c0 8.837 7.163 16 16 16s16-7.163 16-16zM352 143.2c0-8.837-7.163-16-16-16s-16 7.163-16 16c0 8.837 7.163 16 16 16s16-7.163 16-16zM539.8 464c-5.8 10-16.2 15.6-26.8 16l-76 126.8c-4.6 7.6-14.4 10-22 5.4s-10-14.4-5.4-22l75.2-125.8c-5.8-9.6-6.4-22.2-0.4-32.6 3-5 7-9 11.8-11.6v-244.2c0-8.8 7.2-16 16-16s16 7.2 16 16v244.2c15.2 9 20.4 28.4 11.6 43.8z"/>
      <glyph unicode="&#xe91b;" glyph-name="ios-information"
             d="M512 864c-229.8 0-416-186.2-416-416s186.2-416 416-416c229.8 0 416 186.2 416 416s-186.2 416-416 416zM503 656c22.2 0 40-18 40-40s-18-40-40-40c-22 0-40 18-40 40s17.8 40 40 40zM576 256h-128v16h32v240h-32v16h96v-256h32v-16z"/>
      <glyph unicode="&#xe91c;" glyph-name="help"
             d="M512 864c-229.8 0-416-186.2-416-416s186.2-416 416-416c229.8 0 416 186.2 416 416s-186.2 416-416 416zM520.6 228c-18.8 0-34 15-34 33.8 0 18.6 15.2 33.6 34 33.6s34-15 34-33.6c0-18.8-15.2-33.8-34-33.8zM588.2 458.6c-45.6-45-44.4-54.8-46.6-106.6h-38c2.2 57 15 87.4 60.2 129 22 20.6 38.8 45.4 38.8 76.2 0 47.2-38.8 79.8-85.2 79.8-64.8 0-97-32.8-95.8-92.8h-37.6c0.6 84 48.8 124.2 135.2 124.2 66 0 120.8-40.8 120.8-109.2 0-43.8-21.4-72.4-51.8-100.6z"/>
      <glyph unicode="&#xe91d;" glyph-name="help-thin"
             d="M512 864c-229.8 0-416-186.2-416-416s186.2-416 416-416c229.8 0 416 186.2 416 416s-186.2 416-416 416zM512 66.6c-210.2 0-381.4 171-381.4 381.4 0 210.2 171 381.4 381.4 381.4 210.2 0 381.4-171 381.4-381.4 0-210.2-171.2-381.4-381.4-381.4zM519.2 668c-86.4 0-134.6-40.6-135.2-124.4h37.6c-1.2 60.8 31 93 95.8 93 46.4 0 85.2-32.4 85.2-79.6 0-30.6-16.6-55.4-38.8-76.2-45.2-41.6-58-72-60.2-129h38c2.2 51.6 1 61.4 46.6 106.6 30.4 28.4 51.8 56.6 51.8 100.4 0 68.4-54.8 109.2-120.8 109.2zM520.6 295.4c-18.8 0-34-15-34-33.6s15.2-33.8 34-33.8c18.8 0 34 15 34 33.8 0 18.6-15.2 33.6-34 33.6z"/>
      <glyph unicode="&#xe91e;" glyph-name="trash"
             d="M640 734v39.4c0 32.4-26.2 58.6-58.6 58.6h-139c-32.2 0-58.4-26.2-58.4-58.6v-39.4h-160v-30h42.2l47.2-581.4c0-32.4 26.2-58.6 58.6-58.6h282c32.4 0 58.6 26.2 58.6 58.6l46.6 581.4h40.8v30h-160zM414 773.4c0 16.2 12.4 28.6 28.6 28.6h139c16.2 0 28.6-12.4 28.6-28.6v-39.4h-196v39.4h-0.2zM405.4 158l-21.4 482h29l21.8-482h-29.4zM526 158h-28v482h28v-482zM618.6 158h-29.2l21.6 482h29l-21.4-482z"/>
      <glyph unicode="&#xe91f;" glyph-name="trash-thin"
             d="M800 733.4h-160v40c0 32.4-26.2 58.6-58.6 58.6h-139c-32.2 0-58.4-26.2-58.4-58.6v-40h-160v-29.4h42.2l47.2-581.4c0-32.4 26.2-58.6 58.6-58.6h282c32.4 0 58.6 26.2 58.6 58.6l46.6 581.4h40.8v29.4zM413.2 773.4c0 16.2 13.2 29.4 29.2 29.4h139c16.2 0 29.2-13.2 29.2-29.4v-40h-197.4v40zM683.2 124.2v-1.6c0-16.2-13.2-29.4-29.2-29.4h-282c-16.2 0-29.2 13.2-29.2 29.4v1.6l-47.4 579.8h434.4l-46.6-579.8zM498 640h28v-482h-28v482zM640 640h-29.2l-21.4-482h29.2zM413 640h-29l21.4-482h29.2z"/>
      <glyph unicode="&#xe920;" glyph-name="ios-cloud-download"
             d="M496 90l-109.4 107.6-23.4-22.8 149-146.8 149 146.8-23.6 22.8-109.6-107.6v214h-32zM798.4 631.2c0 2.4 0.4 4.6 0.4 7 0 127-105.8 229.8-233.6 229.8-92.2 0-171.6-53.6-208.8-130.8-16.2 8-34.2 12.6-53.6 12.6-59.2 0-108.2-46.6-117.8-102.6-70.4-24-121.2-86.8-121.2-164.8 0-98.2 80.2-178.4 179.2-178.4h253v270h32v-270h268c90 0 163.8 74.4 163.8 164.2s-70.8 162.8-161.4 163z"/>
      <glyph unicode="&#xe921;" glyph-name="ios-cloud-upload"
             d="M496 256h32v-192h-32v192zM798.6 592.8c0 2.4 0.4 4.8 0.4 7.2 0 128.6-105.6 232.8-233.6 232.8-92.2 0-171.6-54.2-208.8-132.6-16.2 8.2-34.2 12.8-53.6 12.8-59.2 0-108.2-47.2-117.8-104-70.4-24.2-121.2-93.4-121.2-172.6 0-99.4 80.2-180.4 179.2-180.4h252.8v292.4l-109.4-109-23.2 23.2 149 148.6 149-148.6-23.6-23.2-109.8 109v-292.4h268c90 0 164 74.6 164 165.6s-71 171-161.4 171.2z"/>
      <glyph unicode="&#xe922;" glyph-name="refresh"
             d="M512 864c-229.8 0-416-186.2-416-416s186.2-416 416-416c229.8 0 416 186.2 416 416s-186.2 416-416 416zM512 191.8c-141.4 0-256 114.6-256 256.2s114.6 256.2 256 256.2v87.8l192-128-192-111.4v111.6c-119.2 0-216.2-97-216.2-216.2s97-216.2 216.2-216.2 216.2 96.2 216.2 216.2h39.8c0-142-114.6-256.2-256-256.2z"/>
      <glyph unicode="&#xe923;" glyph-name="refresh-thin"
             d="M728.2 448c0-120-97-216.4-216.2-216.4s-216.2 97-216.2 216.4c0 119.2 97 216.2 216.2 216.2v-111.6l192 111.4-192 128v-88c-141.4 0-256-114.8-256-256.2 0-141.6 114.6-256.2 256-256.2s256 114.2 256 256.2h-39.8zM512 864c-229.8 0-416-186.2-416-416s186.2-416 416-416c229.8 0 416 186.2 416 416s-186.2 416-416 416zM512 66.6c-210.2 0-381.4 171-381.4 381.4 0 210.2 171 381.4 381.4 381.4 210.2 0 381.4-171 381.4-381.4 0-210.2-171.2-381.4-381.4-381.4z"/>
      <glyph unicode="&#xe924;" glyph-name="languages"
             d="M512 768c-212.2 0-384-138.2-384-308.6 0-61.4 22.4-118.6 60.8-166.6 1.8-1.8 5.8-7.6 7.2-9.8 0 0-2 3.2-2.2 3.8 0 0 0 0 0 0v0c0 0 0 0 0 0 4.6-6.6 7.2-14.2 7.2-22.4 0-2.8-35.8-116-35.8-116v0c-2.6-8.8 4.2-17.8 15.2-20 1.6-0.4 3.2-0.4 4.8-0.4 2.6 0 5 0.4 7.4 1l3.2 1.2 101.2 44c1.8 0.8 18 7 20 7.8 0 0 1.2 0.4 1.2 0.4s-0.2 0-1.2-0.4c6.8 2.4 14.4 3.6 22.4 3.6 7.2 0 14.2-1 20.6-3 0.2 0 0.4 0 0.4-0.2 1-0.4 2-0.6 3-1 46.2-15.8 96.8-20.6 150.2-20.6 212 0 382 128.2 382 298.6 0.4 170.4-171.6 308.6-383.6 308.6v0z"/>
      <glyph unicode="&#xe925;" glyph-name="chatbubble-thin"
             d="M512 736c194 0 352-124 352-276.6 0-71.8-35.2-138.4-99-187.8-65.6-50.8-154.8-78.6-251-78.6-57.8 0-102 6-139.4 18.6-1.2 0.4-2.6 1-4 1.4-0.6 0.2-1.2 0.4-1.6 0.4-9.4 2.8-19.4 4.2-29.4 4.2-11.2 0-22.2-1.8-32.6-5.2v0l-0.6-0.2c-1.2-0.4-17.8-6.6-22-8.6v0l-79.2-34.4c27.6 87.8 27.6 89.6 27.6 95.2 0 14.2-4.4 28.2-12.6 40.4-1 1.4-2 2.8-3.2 4.2-1.4 1.8-2.6 3.4-3.6 4.6-34.8 43.8-53.2 94.2-53.2 146-0.2 152.4 157.8 276.4 351.8 276.4zM512 768c-212.2 0-384-138.2-384-308.6 0-61.4 22.4-118.6 60.8-166.6 1.8-1.8 5.8-7.6 7.2-9.8 0 0-2 3.2-2.2 3.8 0 0 0 0 0 0v0c0 0 0 0 0 0 4.6-6.6 7.2-14.2 7.2-22.4 0-2.8-35.8-116-35.8-116v0c-2.6-8.8 4.2-17.8 15.2-20 1.6-0.4 3.2-0.4 4.8-0.4 2.6 0 5 0.4 7.4 1l3.2 1.2 101.2 44c1.8 0.8 18 7 20 7.8 0 0 1.2 0.4 1.2 0.4s-0.2 0-1.2-0.4c6.8 2.4 14.4 3.6 22.4 3.6 7.2 0 14.2-1 20.6-3 0.2 0 0.4 0 0.4-0.2 1-0.4 2-0.6 3-1 46.2-15.8 96.8-20.6 150.2-20.6 212 0 382 128.2 382 298.6 0.4 170.4-171.6 308.6-383.6 308.6v0z"/>
      <glyph unicode="&#xe926;" glyph-name="course"
             d="M960 704h-896v-640h896v640zM144 768h736v-32h-736v32zM208 832h608v-32h-608v32z"/>
      <glyph unicode="&#xe927;" glyph-name="course-thin"
             d="M928 672v-576h-832v576h832zM960 704h-896v-640h896v640zM144 768h736v-32h-736v32zM208 832h608v-32h-608v32z"/>
      <glyph unicode="&#xe928;" glyph-name="read"
             d="M328.932 832c-110.4 0-200.932-51.96-200.932-158v-566h44.282c25.72 52.668 88.476 84 156.65 84 80.448 0 147.754-55.056 163.232-128h3.836v705.308c-34.48 42.79-98.038 62.692-167.068 62.692zM695.242 832c-68.664 0-133.426-19.702-167.242-62.022v-705.978h3.594c15.478 72.944 82.99 128 163.444 128 68.17 0 122.298-23.332 156.858-84h44.104v566c0 106.040-90.354 158-200.758 158z"/>
      <glyph unicode="&#xe929;" glyph-name="read-thin"
             d="M695.242 832c-81.882 0-158.242-28-183.156-88.99-27.086 60.99-101.27 88.99-183.154 88.99-110.402 0-200.932-51.96-200.932-158v-566h44.28c25.72 52.668 88.476 84 156.65 84 80.448 0 147.754-55.056 163.234-128h39.428c15.478 72.944 82.99 128 163.444 128 68.17 0 122.298-23.332 156.858-84h44.106v566c0 106.040-90.354 158-200.758 158zM496 138.148c-36 51.742-97.46 85.852-167 85.852-69.538 0-129-20.11-167-71.852l-2-1.074v526.926c6 83.65 80.178 122 168.586 122 90.324 0 164.29-37.416 166.726-123.616-0.034-1.458 0.032-2.918 0.032-4.384l0.656-26.206v-507.646zM864 664v-511.852c-36 51.742-99.462 71.852-169 71.852-69.54 0-131-34.11-167-85.852v533.852c0 88.224 75.318 128 167.174 128 88.406 0 162.826-22.35 168.826-106v-30z"/>
      <glyph unicode="&#xe92a;" glyph-name="box"
             d="M224 160h576v384h-576v-384zM448 480h128c17.6 0 32-14.4 32-32s-14.4-32-32-32h-128c-17.6 0-32 14.4-32 32s14.4 32 32 32zM192 736v-160h640v160z"/>
      <glyph unicode="&#xe92b;" glyph-name="box-thin"
             d="M575.6 480c17.6 0 32.2-14.4 32.2-32s-14-32-31.8-32h-128c-17.6 0-32 14.4-32 32s14.4 32 32 32h126zM576 512h-128c-35.2 0-64-28.8-64-64s28.8-64 64-64h128c35.2 0 64 28.8 64 64s-28.8 64-64 64v0zM832 736h-640v-160h32v-416h576v416h32v160zM768 192h-512v384h512v-384zM800 608h-576v96h576v-96z"/>
      <glyph unicode="&#xe92c;" glyph-name="calendar"
             d="M128 576h768v-512h-768v512zM896 768h-192v-96h-32v96h-320v-96h-32v96h-192v-160h768zM320 832h32v-64h-32v64zM672 832h32v-64h-32v64z"/>
      <glyph unicode="&#xe92d;" glyph-name="calendar-thin"
             d="M704 768v64h-32v-64h-320v64h-32v-64h-192v-704h768v704h-192zM864 96h-704v480h704v-480zM864 608h-704v128h160v-64h32v64h320v-64h32v64h160v-128z"/>
      <glyph unicode="&#xe92e;" glyph-name="chatbox"
             d="M672 864h-576v-448h224v224h352zM352 608v-448h325.2l128-128h26.8v128h96v448h-576z"/>
      <glyph unicode="&#xe92f;" glyph-name="chatbox-thin"
             d="M128 832h512v-192h32v224h-576v-448h224v32h-192zM352 608v-448h325.2l128-128h26.8v128h96v448h-576zM896 192h-96v-109.2l-110 109.2h-306v384h512v-384z"/>
      <glyph unicode="&#xe930;" glyph-name="print"
             d="M256 512h512v-448h-512v448zM255 511h512v-448h-512v448zM223 831h576v-64h-576v64zM865 735h-704c-35.29 0-66-25.684-66-60.618v-316.786c0-34.936 30.71-66.598 66-66.598h62v252h576v-252h66c35.29 0 62 31.662 62 66.598v316.786c0 34.934-26.71 60.618-62 60.618z"/>
      <glyph unicode="&#xe931;" glyph-name="edit"
             d="M512 320h-128v128l256 256h-512v-608h640v480zM775.854 776.52l-359.854-359.822v-64.698h64.432l360.090 359.968zM888.426 799.376l-24.93 24.932c-5.328 4.758-12.384 7.692-20.004 7.692-7.624 0-14.608-2.936-19.858-7.7l-24.302-24.3 64.786-64.786 24.3 24.3c4.766 5.25 7.582 12.234 7.582 19.858 0 7.62-2.816 14.678-7.574 20.004z"/>
      <glyph unicode="&#xe932;" glyph-name="edit-thin"
             d="M736 128h-576v544h448.234l32 32h-512.234v-608h640v480.234l-32-32zM475.246 391.832l-19.412 19.414 342.646 342.646-22.626 22.628-359.854-359.822v-64.698h64.432l360.090 359.968-22.628 22.572zM888.426 799.376l-24.93 24.932c-5.328 4.758-12.384 7.692-20.004 7.692-7.624 0-14.608-2.936-19.858-7.7l-24.302-24.3 64.786-64.786 24.3 24.3c4.766 5.25 7.582 12.234 7.582 19.858 0 7.62-2.816 14.678-7.574 20.004z"/>
      <glyph unicode="&#xe933;" glyph-name="email"
             d="M896 192v484.4l-262.2-199.6 136.2-154.8-4-4-157.8 139.2-96.2-73.2-96.2 73.2-157.8-139.2-4 4 136 154.8-262 199.2v-484zM879.4 704h-735.4l368-279.8z"/>
      <glyph unicode="&#xe934;" glyph-name="email-thin"
             d="M128 704v-512h768v512h-768zM512 424.2l-325.6 247.8h651.2l-325.6-247.8zM160 224v427.8l230.2-175.2-136.2-154.6 4-4 157.8 139.2 96.2-73.2 96.2 73.2 157.8-139.2 4 4-136.2 154.8 230.2 175v-427.8h-704z"/>
      <glyph unicode="&#xe935;" glyph-name="eye"
             d="M894.2 447.6c-90.6 104.4-215.8 224.4-382.2 224.4-67.2 0-128.8-19-193.8-59.6-54.8-34.4-111-82.8-188.2-162.4l-2-2 13.4-13.8c110.2-112.8 205.4-210.2 370.6-210.2 73 0 143.8 23.8 216.4 72.8 61.8 41.8 114.4 94.8 156.6 137.6l11 11-1.8 2.2zM512 288c-88.2 0-160 71.8-160 160s71.8 160 160 160c88.2 0 160-71.8 160-160s-71.8-160-160-160zM500.8 506.4c0 13.8 4 26.8 11 37.6-53 0-95.8-43.2-95.8-96.4s43-96.2 95.8-96.2 96 43 96 96.2v0c-10.8-7-23.8-11-37.6-11-38.2 0.2-69.4 31.4-69.4 69.8z"/>
      <glyph unicode="&#xe936;" glyph-name="eye-thin"
             d="M894.2 447.6c-90.6 104.4-215.8 224.4-382.2 224.4-67.2 0-128.8-19-193.8-59.6-54.8-34.4-111-82.8-188.2-162.4l-2-2 13.4-13.8c110.2-112.8 205.4-210.2 370.6-210.2 73 0 143.8 23.8 216.4 72.8 61.8 41.8 114.4 94.8 156.6 137.6l11 11-1.8 2.2zM512 640c66.2 0 129.8-19 194.4-61.2 47.8-31.2 94.8-73.4 147.4-132.2-76.6-77.4-191.6-190.6-341.8-190.6-68.4 0-128.4 16.8-188.4 56.4-55 36.2-104.6 86.6-152.4 135.6 118.2 119.4 216.8 192 340.8 192zM512 288c88.2 0 160 71.8 160 160s-71.8 160-160 160c-88.2 0-160-71.8-160-160s71.8-160 160-160zM512 575.4c70.4 0 128-57.2 128-127.4s-57.6-127.4-128-127.4c-70.4 0-127.8 57.2-127.8 127.4s57.4 127.4 127.8 127.4zM576 448v0c0-35-28.8-64-63.6-64s-64.4 30.4-64.4 65.4 31.6 62.6 64 62.6v32c-53 0-95.8-43.2-95.8-96.4s43-96.2 95.8-96.2 96 43.2 96 96.2v0.4h-32z"/>
      <glyph unicode="&#xe937;" glyph-name="flag"
             d="M736 736c-22-2.8-49.8-7-79.4-7-46.2 0-88 11.4-130.4 20.4-43 9.2-87.4 18.6-134.4 18.6-93.8 0-125.6-20.2-128.8-22.4l-6.8-4.8v-612.8h32v286.6c12 5 43.6 13.8 103.8 13.8 43.6 0 84.4-16.6 127.8-26 44-9.4 89.6-19.2 139-19.2 29.4 0 55.4 4 77.4 6.6 12 1.4 22.6 2.8 32 4.4v346.8c-9.4-1.8-20.2-3.4-32.2-5z"/>
      <glyph unicode="&#xe938;" glyph-name="flag-thin"
             d="M736 736c-22-2.8-49.8-7-79.4-7-46.2 0-88 11.4-130.4 20.4-43 9.2-87.4 18.6-134.4 18.6-93.8 0-125.6-20.2-128.8-22.4l-6.8-4.8v-612.8h32v286.6c12 5 43.6 13.8 103.8 13.8 43.6 0 84.4-16.6 127.8-26 44-9.4 89.6-19.2 139-19.2 29.4 0 55.4 4 77.4 6.6 12 1.4 22.6 2.8 32 4.4v346.8c-9.4-1.8-20.2-3.4-32.2-5zM736 422c-22-2.8-47.8-7-77.4-7-46.2 0-90 9.4-132.4 18.4-43 9.2-87.2 26.6-134.2 26.6-51.4 0-83.8-6-103.8-12v274.6c12 5 43.8 13.6 103.8 13.6 43.6 0 84.4-8.6 127.8-18 44-9.4 87.6-21.2 137-21.2 29.4 0 57.4 4 79.4 6.6l-0.2-281.6z"/>
      <glyph unicode="&#xe939;" glyph-name="lightbulb"
             d="M800 614.2c0 155.6-132.2 281.8-288 281.8s-288-126.2-288-282c0-62 26.4-118 60.4-166h-0.6c21.8-30 42.8-55.4 63-90 44-75.6 37.2-148.6 37.4-163.2v-2.8h64v256l-64 128h33.2l62.8-128v-256h64v256l62.8 128h33l-64-128v-256h64v2.8c0 17.8-7.2 87.6 36.8 163.2 20.2 34.6 41.2 60 63 90h-0.2c34 48 60.4 104 60.4 166.2zM448 32h128v-32h-128v32zM416 96h192v-32h-192v32zM416 160h192v-32h-192v32z"/>
      <glyph unicode="&#xe93a;" glyph-name="lightbulb-thin"
             d="M800 614.2c0 155.6-132.2 281.8-288 281.8s-288-126.2-288-282c0-62 26.4-118 60.4-166h-0.6c21.8-30 42.8-55.4 63-90 44-75.6 37.2-148.6 37.4-163.2v-2.8h256v2.8c0 17.8-7.2 87.6 36.8 163.2 20.2 34.6 41.2 60 63 90h-0.2c33.8 48 60.2 104 60.2 166.2zM702 451.2c-1.2-1.6-2.2-3-3.4-4.6-16.2-21.8-33-44.4-49.4-72.2-34.6-59.4-40.8-115.8-41.6-150.2h-31.6v223.8l64 128h-33.2l-62.8-128v-224h-64v224l-62.8 128h-33.2l64-128v-224h-31.8c-1 34.4-7.8 91.4-41.8 150-9 15.4-18.2 30-27.4 42h0.4l-37.2 51.2c-31.6 43.2-54.2 94.2-54.2 147.2 0 66.8 32 129.6 79.2 176.8s110 73.4 176.8 73.4c66.8 0 129.6-26.2 176.8-73.4s79.2-110 79.2-176.8c0-53-22.6-103.8-54.2-147l-11.8-16.2zM448 32h128v-32h-128v32zM416 96h192v-32h-192v32zM416 160h192v-32h-192v32z"/>
      <glyph unicode="&#xe93b;" glyph-name="location"
             d="M512 896c-159.058 0-288-128.942-288-288 0-224 288-608 288-608s288 384 288 608c0 159.058-128.942 288-288 288zM512 514.2c-51.8 0-93.8 42-93.8 93.8s42 93.8 93.8 93.8 93.8-42 93.8-93.8-42-93.8-93.8-93.8z"/>
      <glyph unicode="&#xe93c;" glyph-name="location-thin"
             d="M512 864c68.38 0 132.668-26.628 181.020-74.98s74.98-112.64 74.98-181.020c0-85.84-48.184-214.254-139.34-371.36-44.558-76.792-89.542-143.268-116.664-181.862-27.036 38.464-71.824 104.654-116.322 181.29-91.376 157.37-139.674 285.98-139.674 371.932 0 68.38 26.628 132.668 74.98 181.020s112.64 74.98 181.020 74.98zM512 896c-159.058 0-288-128.942-288-288 0-224 288-608 288-608s288 384 288 608c0 159.058-128.942 288-288 288v0zM512 736c-70.6 0-128-57.4-128-128s57.4-128 128-128 128 57.4 128 128-57.4 128-128 128zM512 514.2c-51.8 0-93.8 42-93.8 93.8s42 93.8 93.8 93.8 93.8-42 93.8-93.8-42-93.8-93.8-93.8z"/>
      <glyph unicode="&#xe93d;" glyph-name="arrow-down"
             d="M793.2 640l38.8-41.4-320-342.6-320 342.6 38.6 41.4 281.4-301z"/>
      <glyph unicode="&#xe93e;" glyph-name="arrow-left"
             d="M704 729.2l-41.4 38.8-342.6-320 342.6-320 41.4 38.6-301 281.4z"/>
      <glyph unicode="&#xe93f;" glyph-name="arrow-up"
             d="M793.2 256l38.8 41.4-320 342.6-320-342.6 38.6-41.4 281.4 301z"/>
      <glyph unicode="&#xe940;" glyph-name="minus" d="M256 464h512v-35.2h-512v35.2z"/>
      <glyph unicode="&#xe941;" glyph-name="plus" d="M528 704h-35.2v-240h-236.8v-32h240v-240h32v240h240v32h-240v240z"/>
      <glyph unicode="&#xe942;" glyph-name="close"
             d="M744 651.485l-203.725-203.965 202.76-203-28.515-28.515-202.515 203-202.76-203-28.275 28.515 202.515 203-203.485 203.965 28.275 28.515 203.725-203.965 203.485 203.965z"/>
      <glyph unicode="&#xe943;" glyph-name="checkmark"
             d="M447.8 300.6c-4.8-4.8-11.6-8.8-17.6-8.8s-12.8 4.2-17.8 9l-112 112 35.6 35.6 94.4-94.4 249.6 251.4 35-36.2-267.2-268.6z"/>
      <glyph unicode="&#xe944;" glyph-name="list"
             d="M128 832v-768h768v768h-768zM288 224c-17.672 0-32 14.328-32 32s14.328 32 32 32 32-14.328 32-32-14.328-32-32-32zM288 416c-17.672 0-32 14.328-32 32s14.328 32 32 32 32-14.328 32-32-14.328-32-32-32zM288 608c-17.672 0-32 14.328-32 32s14.328 32 32 32 32-14.328 32-32-14.328-32-32-32zM768 240h-384v32h384v-32zM768 432h-384v32h384v-32zM768 624h-384v32h384v-32z"/>
      <glyph unicode="&#xe945;" glyph-name="list-thin"
             d="M864 800v-704h-704v704h704zM896 832h-768v-768h768v768zM384 656h384v-32h-384v32zM384 464h384v-32h-384v32zM384 272h384v-32h-384v32zM320 640c0-17.673-14.327-32-32-32s-32 14.327-32 32c0 17.673 14.327 32 32 32s32-14.327 32-32zM320 448c0-17.673-14.327-32-32-32s-32 14.327-32 32c0 17.673 14.327 32 32 32s32-14.327 32-32zM320 256c0-17.673-14.327-32-32-32s-32 14.327-32 32c0 17.673 14.327 32 32 32s32-14.327 32-32z"/>
      <glyph unicode="&#xe946;" glyph-name="loop"
             d="M512 864c-150.066 0-289.062-81.316-362.746-212.214l-3.926-6.97 41.83-23.542 3.924 6.97c65.194 115.81 188.16 187.756 320.918 187.756 202.916 0 368-165.084 368-368 0-25.018-2.524-50.014-7.498-74.294l-1.606-7.836 47.022-9.638 1.608 7.838c5.622 27.442 8.474 55.68 8.474 83.93 0 229.382-186.618 416-416 416zM832.918 267.762c-65.194-115.816-188.16-187.762-320.918-187.762-202.916 0-368 165.084-368 368 0 25.024 2.524 50.022 7.5 74.3l1.606 7.836-47.022 9.638-1.608-7.836c-5.624-27.438-8.476-55.678-8.476-83.938 0-229.382 186.618-416 416-416 150.066 0 289.062 81.316 362.746 212.218l3.926 6.97-41.83 23.542-3.924-6.968zM768 448l128-128 128 128zM0 448l128 128 128-128z"/>
      <glyph unicode="&#xe947;" glyph-name="loop-thin"
             d="M978.746 448l-82.746-82.746-84.746 82.746-21.628-21.626 106.374-106.374 105.374 105.374zM919.988 448.982c-0.004 1.154 0.026 2.314 0.014 3.466l-0.058 0.006c-2.402 222.924-184.46 403.546-407.944 403.546-147.18 0-283.506-79.756-355.776-208.142l27.886-15.696c66.608 118.33 192.25 191.838 327.89 191.838 206.546 0 374.71-167.416 375.97-373.672 0.076-13.764-0.562-27.66-2.034-41.662l31.824-3.348c1.51 14.336 2.21 28.572 2.222 42.682h0.018c0 0.328-0.012 0.654-0.012 0.982zM839.888 263.838c-66.606-118.33-192.248-191.838-327.888-191.838-206.95 0-375.376 168.064-375.986 374.874-0.030 13.372 0.62 26.868 2.048 40.46l-31.824 3.348c-1.508-14.336-2.208-28.572-2.216-42.682h-0.022c0-0.944 0.030-1.878 0.036-2.82 0.012-1.95-0.012-3.904 0.030-5.848l0.044 0.006c4.628-220.988 185.814-399.338 407.89-399.338 147.18 0 283.506 79.756 355.776 208.142l-27.888 15.696zM128 576l-105.374-105.374 22.628-22.626 82.746 82.746 82.746-82.746 22.628 22.626z"/>
      <glyph unicode="&#xe948;" glyph-name="mic"
             d="M512 253c87.4 0 158 75 158 167v309c0 92-70.6 167-158 167s-158-75-158-167v-309c0-92 70.6-167 158-167zM734 576v-159.4c0-120.4-99.6-218.4-220-218.4s-220 98-220 218.4v159.4h-38v-159.4c0-134.4 106-245.2 240-255v-125.6h-146v-36h322v36h-138v125.6c132 9.8 234 120.6 234 255v159.4h-34z"/>
      <glyph unicode="&#xe949;" glyph-name="mic-thin"
             d="M512 896c-87.4 0-158-75-158-167v-309c0-92 70.6-167 158-167s158 75 158 167v309c0 92-70.6 167-158 167zM638 420c0-74.4-56.6-135-126-135s-126 60.6-126 135v309c0 74.4 56.6 135 126 135s126-60.6 126-135v-309zM734 576v-159.4c0-120.4-99.6-218.4-220-218.4s-220 98-220 218.4v159.4h-38v-159.4c0-134.4 106-245.2 240-255v-125.6h-146v-36h322v36h-138v125.6c132 9.8 234 120.6 234 255v159.4h-34z"/>
      <glyph unicode="&#xe94a;" glyph-name="more"
             d="M512 512c-35.4 0-64-28.6-64-64s28.6-64 64-64c35.4 0 64 28.6 64 64s-28.6 64-64 64v0zM256.8 512c-35.4 0-64-28.6-64-64s28.6-64 64-64c35.4 0 64 28.6 64 64s-28.8 64-64 64v0zM768 512c-35.4 0-64-28.6-64-64s28.6-64 64-64 64 28.6 64 64-28.6 64-64 64v0z"/>
      <glyph unicode="&#xe94b;" glyph-name="more-thin"
             d="M512 484c19.8 0 36-16.2 36-36s-16.2-36-36-36-36 16.2-36 36 16.2 36 36 36zM512 512c-35.4 0-64-28.6-64-64s28.6-64 64-64c35.4 0 64 28.6 64 64s-28.6 64-64 64v0zM256.8 484c19.8 0 36-16.2 36-36s-16.2-36-36-36c-19.8 0-36 16.2-36 36s16.2 36 36 36zM256.8 512c-35.4 0-64-28.6-64-64s28.6-64 64-64c35.4 0 64 28.6 64 64s-28.8 64-64 64v0zM768 484c19.8 0 36-16.2 36-36s-16.2-36-36-36-36 16.2-36 36 16.2 36 36 36zM768 512c-35.4 0-64-28.6-64-64s28.6-64 64-64 64 28.6 64 64-28.6 64-64 64v0z"/>
      <glyph unicode="&#xe94c;" glyph-name="navigate"
             d="M512 864c-229.8 0-416-186.2-416-416s186.2-416 416-416c229.8 0 416 186.2 416 416s-186.2 416-416 416zM512 192v256h-255.4l447.4 192-192-448z"/>
      <glyph unicode="&#xe94d;" glyph-name="navigate-thin"
             d="M512 831c102.2 0 198.4-39.8 270.8-112.2s112.2-168.4 112.2-270.8-39.8-198.4-112.2-270.8-168.4-112.2-270.8-112.2-198.4 39.8-270.8 112.2c-72.2 72.4-112.2 168.6-112.2 270.8s39.8 198.4 112.2 270.8c72.4 72.2 168.6 112.2 270.8 112.2zM512 864c-229.8 0-416-186.2-416-416s186.2-416 416-416c229.8 0 416 186.2 416 416s-186.2 416-416 416v0zM704 640l-447.4-192h255.4v-256z"/>
      <glyph unicode="&#xe94e;" glyph-name="paper"
             d="M224 832v-672h-32v576h-64v-610.286c0-34.028 27.686-61.714 61.714-61.714h644.57c34.030 0 61.716 27.686 61.716 61.714v706.286h-672zM320 736h256v-32h-256v32zM320 416h384v-32h-384v32zM800 224h-480v32h480v-32zM800 544h-480v32h480v-32z"/>
      <glyph unicode="&#xe94f;" glyph-name="paper-thin"
             d="M224 832v-672h32v640h608v-674.286c0-16.41-13.304-29.714-29.714-29.714h-644.572c-16.41 0-29.714 13.304-29.714 29.714v578.286h32v32h-64v-610.286c0-34.028 27.686-61.714 61.714-61.714h644.57c34.030 0 61.716 27.686 61.716 61.714v706.286h-672zM320 736h256v-32h-256v32zM320 576h480v-32h-480v32zM320 416h384v-32h-384v32zM320 256h480v-32h-480v32z"/>
      <glyph unicode="&#xe950;" glyph-name="share"
             d="M192 460.8l212-93.4 428 400.6zM832 768l-396.2-431.4 103.8-208.6z"/>
      <glyph unicode="&#xe951;" glyph-name="share-thin"
             d="M192 460.8l233.2-102.6 114.4-230.2 292.4 640-640-307.2zM456.2 367l311.4 332.4-229.2-497.8-82.2 165.4zM763.6 703.4l-330-314.2-165.6 72.8 495.6 241.4z"/>
      <glyph unicode="&#xe952;" glyph-name="photos" d="M192 704v-640h768v640h-768zM832 832h-768v-640h96v544h672z"/>
      <glyph unicode="&#xe953;" glyph-name="photos-thin"
             d="M192 704v-640h768v640h-768zM928 96h-704v576h704v-576zM64 832v-640h96v32h-64v576h704v-64h32v96z"/>
      <glyph unicode="&#xe954;" glyph-name="ios-dragno_Out"
             d="M448 416c0 54.4 0 105.6 0 160 0 48 0 99.2 0 147.2 0 35.2 25.6 60.8 57.6 64s60.8-19.2 67.2-51.2c0-6.4 0-9.6 0-16 0-44.8 0-86.4 0-131.2 19.2 6.4 35.2 9.6 54.4 3.2s32-19.2 38.4-38.4c19.2 9.6 35.2 12.8 54.4 6.4s32-19.2 38.4-38.4c12.8 3.2 22.4 6.4 35.2 6.4 35.2 3.2 64-25.6 67.2-60.8 0-41.6 0-83.2 0-128s-16-89.6-28.8-134.4c-9.6-35.2-22.4-73.6-32-108.8-3.2-9.6-3.2-19.2-3.2-28.8 0-12.8-6.4-19.2-16-19.2s-16 9.6-16 22.4c0 35.2 12.8 67.2 22.4 102.4 12.8 44.8 28.8 86.4 38.4 131.2 3.2 16 3.2 28.8 3.2 44.8 0 38.4 0 76.8 0 112 0 25.6-22.4 41.6-44.8 32-12.8-6.4-19.2-16-19.2-28.8 0-16 0-32 0-48 0-9.6-6.4-16-16-16s-16 6.4-16 16c0 3.2 0 6.4 0 6.4 0 22.4 0 48 0 70.4 0 16-9.6 25.6-22.4 28.8s-28.8 0-35.2-12.8c-3.2-6.4-6.4-12.8-6.4-22.4 0-12.8 0-28.8 0-41.6s-6.4-19.2-16-19.2c-9.6 0-16 6.4-16 19.2 0 25.6 0 51.2 0 73.6 0 19.2-12.8 35.2-32 35.2s-32-12.8-32-35.2c0-25.6 0-48 0-73.6 0-12.8-6.4-19.2-16-19.2s-16 6.4-16 19.2c0 89.6 0 176 0 265.6 0 22.4-19.2 38.4-41.6 32-12.8-3.2-22.4-16-22.4-32 0-57.6 0-118.4 0-176 0-60.8 0-121.6 0-185.6 0-12.8-3.2-16-12.8-19.2s-16 0-22.4 9.6c-19.2 32-38.4 67.2-57.6 99.2-6.4 12.8-19.2 19.2-32 16s-25.6-12.8-25.6-25.6c0-6.4 0-16 3.2-22.4 32-48 48-99.2 64-153.6 6.4-25.6 16-48 32-67.2 25.6-35.2 48-73.6 73.6-108.8 0-3.2 3.2-3.2 3.2-6.4 6.4-9.6 6.4-19.2-3.2-25.6-6.4-6.4-16-3.2-22.4 6.4-9.6 12.8-19.2 25.6-28.8 38.4-12.8 19.2-25.6 41.6-41.6 60.8-25.6 35.2-44.8 76.8-54.4 118.4s-25.6 83.2-51.2 118.4c-12.8 22.4-16 44.8-3.2 67.2 22.4 41.6 83.2 44.8 108.8 3.2 9.6-16 19.2-32 28.8-48 6.4 12.8 9.6 9.6 12.8 6.4-3.2 0 0 0 0 0z"/>
      <glyph unicode="&#xe955;" glyph-name="ios-drag_Out"
             d="M448 416c0 54.4 0 105.6 0 160 0 48 0 99.2 0 147.2 0 35.2 25.6 60.8 57.6 64s60.8-19.2 67.2-51.2c0-6.4 0-9.6 0-16 0-44.8 0-86.4 0-131.2 19.2 6.4 35.2 9.6 54.4 3.2s32-19.2 38.4-38.4c19.2 9.6 35.2 12.8 54.4 6.4s32-19.2 38.4-38.4c12.8 3.2 22.4 6.4 35.2 6.4 35.2 3.2 64-25.6 67.2-60.8 0-41.6 0-83.2 0-128s-16-89.6-28.8-134.4c-9.6-35.2-22.4-73.6-32-108.8-3.2-9.6-3.2-19.2-3.2-28.8 0-12.8-6.4-19.2-16-19.2s-16 9.6-16 22.4c0 35.2 12.8 67.2 22.4 102.4 12.8 44.8 28.8 86.4 38.4 131.2 3.2 16 3.2 28.8 3.2 44.8 0 38.4 0 76.8 0 112 0 25.6-22.4 41.6-44.8 32-12.8-6.4-19.2-16-19.2-28.8 0-16 0-32 0-48 0-9.6-6.4-16-16-16s-16 6.4-16 16c0 3.2 0 6.4 0 6.4 0 22.4 0 48 0 70.4 0 16-9.6 25.6-22.4 28.8s-28.8 0-35.2-12.8c-3.2-6.4-6.4-12.8-6.4-22.4 0-12.8 0-28.8 0-41.6s-6.4-19.2-16-19.2c-9.6 0-16 6.4-16 19.2 0 25.6 0 51.2 0 73.6 0 19.2-12.8 35.2-32 35.2s-32-12.8-32-35.2c0-25.6 0-48 0-73.6 0-12.8-6.4-19.2-16-19.2s-16 6.4-16 19.2c0 89.6 0 176 0 265.6 0 22.4-19.2 38.4-41.6 32-12.8-3.2-22.4-16-22.4-32 0-57.6 0-118.4 0-176 0-60.8 0-121.6 0-185.6 0-12.8-3.2-16-12.8-19.2s-16 0-22.4 9.6c-19.2 32-38.4 67.2-57.6 99.2-6.4 12.8-19.2 19.2-32 16s-25.6-12.8-25.6-25.6c0-6.4 0-16 3.2-22.4 32-48 48-99.2 64-153.6 6.4-25.6 16-48 32-67.2 25.6-35.2 48-73.6 73.6-108.8 0-3.2 3.2-3.2 3.2-6.4 6.4-9.6 6.4-19.2-3.2-25.6-6.4-6.4-16-3.2-22.4 6.4-9.6 12.8-19.2 25.6-28.8 38.4-12.8 19.2-25.6 41.6-41.6 60.8-25.6 35.2-44.8 76.8-54.4 118.4s-25.6 83.2-51.2 118.4c-12.8 22.4-16 44.8-3.2 67.2 22.4 41.6 83.2 44.8 108.8 3.2 9.6-16 19.2-32 28.8-48 6.4 12.8 9.6 9.6 12.8 6.4-3.2 0 0 0 0 0zM835.2 755.2c-3.2 0-6.4 0-9.6 0-67.2 0-131.2 0-198.4 0-3.2 0-6.4 0-9.6 0-6.4 0-12.8 6.4-12.8 16s3.2 12.8 12.8 16c3.2 0 6.4 0 9.6 0 67.2 0 131.2 0 198.4 0 3.2 0 6.4 0 9.6 0 0 0 0 0 0 3.2-9.6 9.6-22.4 22.4-32 32-3.2 3.2-6.4 6.4-6.4 9.6-3.2 6.4 0 12.8 6.4 19.2 6.4 3.2 12.8 3.2 19.2-3.2 22.4-22.4 41.6-41.6 64-64 6.4-6.4 6.4-16 0-22.4-22.4-22.4-41.6-41.6-64-64-6.4-6.4-16-6.4-22.4 0s-6.4 16 0 22.4c12.8 9.6 25.6 22.4 35.2 35.2 3.2 0 0 0 0 0zM182.4 755.2c12.8-12.8 22.4-22.4 32-32s12.8-19.2 6.4-28.8c-6.4-6.4-16-6.4-28.8 6.4-19.2 19.2-35.2 35.2-54.4 54.4-9.6 9.6-9.6 19.2 0 28.8 19.2 19.2 38.4 38.4 57.6 57.6 9.6 9.6 19.2 9.6 25.6 3.2s6.4-16-3.2-25.6c-9.6-9.6-22.4-22.4-35.2-35.2 6.4 0 9.6 0 12.8 0 64 0 131.2 0 195.2 0 3.2 0 6.4 0 9.6 0 9.6 0 12.8-9.6 12.8-16 0-9.6-6.4-16-16-16-16 0-32 0-44.8 0-54.4 0-105.6 0-160 0 0 3.2-3.2 3.2-9.6 3.2z"/>
      <glyph unicode="&#xe956;" glyph-name="pricetag"
             d="M768 704c0-17.673-14.327-32-32-32s-32 14.327-32 32c0 17.673 14.327 32 32 32s32-14.327 32-32zM608 896l-512-576 320-320 512 576v320h-320zM736 640c-35.29 0-64 28.71-64 64s28.71 64 64 64 64-28.71 64-64-28.71-64-64-64z"/>
      <glyph unicode="&#xe957;" glyph-name="pricetag-thin"
             d="M928 896h-320l-512-576 320-320 512 576v320zM896 592l-479.75-544-272.126 272 479.050 544h272.826v-272zM736 640c35.29 0 64 28.71 64 64s-28.71 64-64 64-64-28.71-64-64 28.71-64 64-64zM736 736c17.672 0 32-14.326 32-32s-14.328-32-32-32-32 14.326-32 32 14.328 32 32 32z"/>
      <glyph unicode="&#xe958;" glyph-name="pricetags"
             d="M928 832v-274.754l-473.694-532.206 25.694-25.040 480 544v288zM576 896l-512-576 320-320 46.942 47.808 22.696 22.75 442.362 505.442v320h-320zM704 640c-35.29 0-64 28.71-64 64s28.71 64 64 64 64-28.71 64-64-28.71-64-64-64zM736 704c0-17.673-14.327-32-32-32s-32 14.327-32 32c0 17.673 14.327 32 32 32s32-14.327 32-32z"/>
      <glyph unicode="&#xe959;" glyph-name="pricetags-thin"
             d="M896 832v64h-320l-512-576 320-320 46.942 47.808 49.058-47.808 480 544v288h-64zM384 45.258l-275.22 274.742 480.462 544h274.758v-274.754l-433.11-495.98-22.68-22.726-24.21-25.282zM928 557.246l-448-511.988-26.364 25.3 442.364 505.442v224h32v-242.754zM704 640c35.29 0 64 28.71 64 64s-28.71 64-64 64-64-28.71-64-64 28.71-64 64-64zM704 736c17.672 0 32-14.326 32-32s-14.328-32-32-32-32 14.326-32 32 14.328 32 32 32z"/>
      <glyph unicode="&#xe95a;" glyph-name="pulse"
             d="M896 413.998c-42.54 0-78.592-27.998-91.192-65.998h-77.714l-56.722 170.834c-4.352 13.106-16.606 21.912-30.366 21.912-0.224 0-0.448 0-0.67-0.008-14.032-0.29-26.234-9.688-30.098-23.176l-88.968-310.524-104.706 628.216c-2.494 14.96-14.898 28.746-31.564 28.746s-27.386-11.552-31.050-26.27l-121.958-489.73h-198.992v-63.998h224c14.696 0 27.5 10.006 31.050 24.268l90.736 364.354 102.648-615.88c2.458-14.754 14.794-23.84 29.728-24.688 0.616-0.036 1.228-0.056 1.838-0.056 14.194 0 26.812 7.402 30.762 21.188l99.488 347.234 31.378-94.504c4.346-13.086 16.584-21.916 30.372-21.916h102.216c13.73-36 48.738-62.002 89.784-62.002 53.022 0 96 44.984 96 98 0 53.018-42.978 93.998-96 93.998z"/>
      <glyph unicode="&#xe95b;" glyph-name="pulse-thin"
             d="M896 384c-30.536 0-56.058-21.39-62.446-50h-118.008l-60.362 181.792c-2.21 6.658-8.492 11.086-15.518 10.956-7.016-0.144-13.118-4.844-15.048-11.59l-108.484-378.638-116.35 698.11c-1.248 7.48-7.574 13.056-15.152 13.358-7.618 0.278-14.322-4.764-16.156-12.122l-124.98-501.866h-179.496v-32h192c7.348 0 13.75 5.004 15.526 12.132l109.37 439.182 115.322-691.946c1.23-7.376 7.406-12.918 14.874-13.344 0.306-0.018 0.614-0.026 0.918-0.026 7.098 0 13.398 4.7 15.374 11.594l113.744 396.992 47.69-143.626c2.174-6.542 8.292-10.958 15.186-10.958h130.584c7.78-26.578 32.322-46 61.416-46 35.348 0 64 28.654 64 64s-28.656 64-64.004 64z"/>
      <glyph unicode="&#xe95c;" glyph-name="search"
             d="M689 364c30 47.2 47.6 103.2 47.6 163.4 0 168.2-136.2 304.6-304.2 304.6-168.2 0-304.4-136.4-304.4-304.6s136.2-304.6 304.2-304.6c61 0 117.8 18 165.4 48.8l13.8 9.6 217.2-217.2 67.4 68.6-217 217.2 10 14.2zM602.8 697.6c45.4-45.4 70.4-105.8 70.4-170s-25-124.6-70.4-170c-45.4-45.4-105.8-70.4-170-70.4s-124.6 25-170 70.4c-45.4 45.4-70.4 105.8-70.4 170s25 124.6 70.4 170c45.4 45.4 105.8 70.4 170 70.4s124.6-25 170-70.4z"/>
      <glyph unicode="&#xe95d;" glyph-name="search-thin"
             d="M896.6 110.6l-226.6 226.8c41.6 52 66.6 118.2 66.6 190.2 0 168.2-136.2 304.4-304 304.4-168 0-304-136.4-304-304.4s136.2-304.4 304-304.4c72.4 0 138.8 25.4 191 67.6l226.4-226.8 46.6 46.6zM240.2 334.8c-51.4 51.4-79.6 119.8-79.6 192.6s28.4 141.2 79.6 192.6 119.8 80 192.4 80c72.6 0 141-28.4 192.4-79.8s79.6-119.8 79.6-192.6-28.4-141.2-79.6-192.6c-51.4-51.4-119.8-79.8-192.4-79.8-72.6-0.2-141 28.2-192.4 79.6z"/>
      <glyph unicode="&#xe95e;" glyph-name="settings"
             d="M64 208h566.7c12.372 28.224 40.562 48 73.3 48s60.93-19.776 73.3-48h182.7v-64h-182.7c-12.372-28.224-40.562-48-73.3-48s-60.93 19.776-73.3 48h-566.7zM64 480h182.7c12.372 28.224 40.562 48 73.3 48s60.93-19.776 73.3-48h566.7v-64h-566.7c-12.372-28.224-40.562-48-73.3-48s-60.93 19.776-73.3 48h-182.7zM64 752h566.7c12.372 28.224 40.562 48 73.3 48s60.93-19.776 73.3-48h182.7v-64h-182.7c-12.372-28.224-40.562-48-73.3-48s-60.93 19.776-73.3 48h-566.7z"/>
      <glyph unicode="&#xe95f;" glyph-name="settings-thin"
             d="M704 752c17.674 0 32-14.326 32-32s-14.326-32-32-32-32 14.326-32 32 14.326 32 32 32zM704 784c-35.29 0-64-28.71-64-64s28.71-64 64-64 64 28.71 64 64-28.71 64-64 64v0zM704 208c17.674 0 32-14.326 32-32s-14.326-32-32-32-32 14.326-32 32 14.326 32 32 32zM704 240c-35.29 0-64-28.71-64-64s28.71-64 64-64 64 28.71 64 64-28.71 64-64 64v0zM320 480c17.674 0 32-14.326 32-32s-14.326-32-32-32-32 14.326-32 32 14.326 32 32 32zM320 512c-35.29 0-64-28.71-64-64s28.71-64 64-64 64 28.71 64 64-28.71 64-64 64v0zM414.64 464h545.36v-32h-545.36c0.878 5.208 1.36 10.546 1.36 16s-0.48 10.792-1.36 16zM224 448c0-5.454 0.48-10.792 1.36-16h-161.36v32h161.36c-0.88-5.208-1.36-10.546-1.36-16zM798.64 192h161.36v-32h-161.36c0.878 5.208 1.36 10.546 1.36 16s-0.48 10.792-1.36 16zM608 176c0-5.454 0.48-10.792 1.36-16h-545.36v32h545.36c-0.88-5.208-1.36-10.546-1.36-16zM798.64 736h161.36v-32h-161.36c0.878 5.208 1.36 10.546 1.36 16s-0.48 10.792-1.36 16zM609.36 736c-0.878-5.208-1.36-10.546-1.36-16s0.48-10.792 1.36-16h-545.36v32h545.36z"/>
      <glyph unicode="&#xe960;" glyph-name="undo"
             d="M895.8 223.6c0 33.6 7.2 166.2-97.4 271.4-70.4 70.8-160.6 106.8-286.6 112.4v160.6l-383.8-256 384-256v159.6c80-2.2 124.8-18.2 173.4-40 61.8-27.6 110.6-88 151.6-153.2l38.4-62.4h20.6c0 20.2-0.2 45.8-0.2 63.6z"/>
      <glyph unicode="&#xe961;" glyph-name="undo-thin"
             d="M895.8 223.6c0 33.6 7.2 166.2-97.4 271.4-70.4 70.8-160.6 106.8-286.6 112.4v160.6l-383.8-256 384-256v159.6c80-2.2 124.8-18.2 173.4-40 61.8-27.6 110.6-88 151.6-153.2l38.4-62.4h20.6c0 20.2-0.2 45.8-0.2 63.6zM864.4 237.2c-95.2 161.6-202.4 210.8-384.4 210.8v-129.6l-296.2 193.4 296.2 193.6v-129.4c402 0 384.4-338.8 384.4-338.8z"/>
      <glyph unicode="&#xe964;" glyph-name="analytics"
             d="M512 896c-229.652 0-418.912-172.808-444.92-395.478-2.012-17.23-3.080-34.75-3.080-52.522 0-3.566 0.052-7.122 0.134-10.666 5.668-242.496 204.008-437.334 447.866-437.334 210.51 0 387.074 145.204 435.084 340.908 2.674 10.902 4.948 21.958 6.808 33.158 3.994 24.056 6.108 48.746 6.108 73.934 0 247.424-200.576 448-448 448zM925.17 399.296c-14.53 15.614-26.128 32.18-31.404 40.858-1.742 2.94-43.364 71.988-105.656 71.988-55.874 0-84.538-52.538-103.502-87.3-2.83-5.186-5.5-10.082-7.956-14.236-23.132-39.174-55.386-61.216-86.21-59.082-27.172 1.918-50.348 22.806-65.256 58.82-18.662 45.080-59.102 93.624-107.378 100.458-22.856 3.238-57.106-1.732-90.65-43.752-6.586-8.248-13.928-19.224-22.43-31.934-21.144-31.608-53.098-79.372-77.306-83.326-42.040-6.876-70.042 25.192-71.166 26.498l-0.974 1.16-1.174 0.958c-0.416 0.34-30.082 24.834-58.094 66.668 0 0.31-0.012 0.62-0.012 0.928 0 56.174 10.994 110.65 32.678 161.916 20.952 49.534 50.952 94.026 89.166 132.24s82.708 68.214 132.24 89.166c51.264 21.682 105.74 32.676 161.914 32.676s110.65-10.994 161.916-32.678c49.534-20.952 94.026-50.952 132.24-89.166s68.214-82.708 89.166-132.24c21.684-51.266 32.678-105.742 32.678-161.916 0-16.394-0.964-32.636-2.83-48.704z"/>
      <glyph unicode="&#xe965;" glyph-name="analytics-thin"
             d="M512 864c56.174 0 110.65-10.994 161.916-32.678 49.534-20.952 94.026-50.952 132.24-89.166s68.214-82.708 89.166-132.24c21.684-51.266 32.678-105.742 32.678-161.916s-10.994-110.65-32.678-161.916c-20.952-49.534-50.952-94.026-89.166-132.24s-82.708-68.214-132.24-89.166c-51.266-21.684-105.742-32.678-161.916-32.678s-110.65 10.994-161.916 32.678c-49.534 20.952-94.026 50.952-132.24 89.166s-68.214 82.708-89.166 132.24c-21.684 51.266-32.678 105.742-32.678 161.916s10.994 110.65 32.678 161.916c20.952 49.534 50.952 94.026 89.166 132.24s82.708 68.214 132.24 89.166c51.266 21.684 105.742 32.678 161.916 32.678zM512 896c-247.424 0-448-200.576-448-448s200.576-448 448-448 448 200.576 448 448-200.576 448-448 448v0zM215.552 320c-50.504 0-82.336 36.896-83.804 38.634-5.682 6.718-4.802 16.742 1.964 22.384 6.748 5.626 16.802 4.776 22.496-1.896 1.208-1.402 29.212-33.194 71.212-26.372 24.208 3.928 56.16 51.362 77.304 82.752 8.502 12.622 15.844 23.522 22.43 31.712 33.546 41.73 67.798 46.666 90.65 43.452 48.278-6.788 88.716-54.996 107.378-99.764 14.908-35.768 38.084-56.512 65.256-58.416 30.816-2.122 63.078 19.77 86.21 58.672 2.456 4.128 5.124 8.992 7.956 14.14 18.964 34.524 47.628 86.7 103.5 86.7 62.292 0 103.914-68.572 105.656-71.492 4.504-7.548 1.992-17.296-5.612-21.77-7.6-4.474-17.416-1.976-21.92 5.572-0.074 0.124-8.986 14.826-23.718 29.136-12.572 12.214-32.216 26.774-54.406 26.774-36.876 0-58.242-38.89-75.41-70.14-2.96-5.392-5.76-10.486-8.49-15.076-29.436-49.502-72.8-77.27-116.020-74.216-39.902 2.796-72.778 30.484-92.568 77.96-20.026 48.040-56.558 76.834-82.298 80.456-21.2 2.988-41.79-7.722-61.156-31.812-5.744-7.146-13.078-18.034-20.842-29.558-27.098-40.228-60.822-90.292-98.74-96.446-5.882-0.954-11.566-1.386-17.028-1.386z"/>
      <glyph unicode="&#xe966;" glyph-name="ios-arrow-thin-down"
             d="M699.4 315.6c-6.2 6.2-16 6-22.6 0l-148.8-132.8v569.2c0 8.8-7.2 16-16 16s-16-7.2-16-16v-569.2l-148.8 132.6c-6.8 5.8-16.2 6.4-22.4 0.2s-6.6-17-0.2-22.8c0 0 174-158.4 176-160s5.6-4.8 11.4-4.8 9.8 3.2 11.4 4.8 176 160 176 160c3 3 4.6 7.2 4.6 11.4s-1.6 8.2-4.6 11.4z"/>
      <glyph unicode="&#xe967;" glyph-name="arrow-thin-left"
             d="M379.6 260.6c6.2 6.2 6 16 0 22.6l-132.8 148.8h569.2c8.8 0 16 7.2 16 16s-7.2 16-16 16h-569.2l132.6 148.8c5.8 6.8 6.4 16.2 0.2 22.4s-17 6.6-22.8 0.2c0 0-158.4-174-160-176s-4.8-5.6-4.8-11.4 3.2-9.8 4.8-11.4 160-176 160-176c3-3 7.2-4.6 11.4-4.6s8.2 1.6 11.4 4.6z"/>
      <glyph unicode="&#xe968;" glyph-name="arrow-thin-right"
             d="M644.4 260.6c-6.2 6.2-6 16 0 22.6l132.8 148.8h-569.2c-8.8 0-16 7.2-16 16s7.2 16 16 16h569.2l-132.6 148.8c-5.8 6.8-6.4 16.2-0.2 22.4s17 6.6 22.8 0.2c0 0 158.4-174 160-176s4.8-5.6 4.8-11.4-3.2-9.8-4.8-11.4-160-176-160-176c-3-3-7.2-4.6-11.4-4.6s-8.2 1.6-11.4 4.6z"/>
      <glyph unicode="&#xe969;" glyph-name="arrow-thin-up"
             d="M699.4 580.4c-6.2-6.2-16-6-22.6 0l-148.8 132.8v-569.2c0-8.8-7.2-16-16-16s-16 7.2-16 16v569.2l-148.8-132.6c-6.8-5.8-16.2-6.4-22.4-0.2s-6.6 17-0.2 22.8c0 0 174 158.4 176 160s5.6 4.8 11.4 4.8 9.8-3.2 11.4-4.8 176-160 176-160c3-3 4.6-7.2 4.6-11.4s-1.6-8.2-4.6-11.4z"/>
      <glyph unicode="&#xe96c;" glyph-name="filing"
             d="M512 384c-59.6 0-109.8 40.8-124 96h-228v-288h704v288h-228c-14.2-55.2-64.4-96-124-96zM288 512h128c0-53 43-96 96-96s96 43 96 96h256l-127 192h-1v-160h-32v160h-384v-160h-32v160h-1l-127-192h128z"/>
      <glyph unicode="&#xe96d;" glyph-name="filing-thin"
             d="M737 704h-450l-127-192v-320h704v320l-127 192zM826.8 512h-90.8v136l90.8-136zM320 672h384v-160h-96c0-53-43-96-96-96s-96 43-96 96h-96v160zM288 648v-136h-90.8l90.8 136zM832 224h-640v256h196c14.2-55.2 64.4-96 124-96s109.8 40.8 124 96h196v-256z"/>
      <glyph unicode="&#xe96e;" glyph-name="certificate"
             d="M320 383.977v-415.977l192 192 192-192v415.977c-53.482-40.172-119.961-63.977-192-63.977s-138.518 23.804-192 63.977v0 0zM512 352v0c-159.058 0-288 128.942-288 288s128.942 288 288 288c159.058 0 288-128.942 288-288s-128.942-288-288-288zM512 448c106.039 0 192 85.961 192 192s-85.961 192-192 192c-106.039 0-192-85.961-192-192s85.961-192 192-192v0zM512 480c88.366 0 160 71.634 160 160s-71.634 160-160 160c-88.366 0-160-71.634-160-160s71.634-160 160-160v0z"/>
      <glyph unicode="&#xe96f;" glyph-name="certoficate-thin"
             d="M320 425.334v0 0c-58.92 52.735-96 129.37-96 214.666 0 159.058 128.942 288 288 288s288-128.942 288-288c0-85.296-37.080-161.931-96-214.666v-457.334l-192 192-192-192v457.334zM352 400.498v-355.697l160 160 160-160v355.697c-45.763-30.633-100.795-48.498-160-48.498s-114.237 17.865-160 48.498v0 0zM512 384c141.385 0 256 114.615 256 256s-114.615 256-256 256c-141.385 0-256-114.615-256-256s114.615-256 256-256v0zM512 448v0c-106.039 0-192 85.961-192 192s85.961 192 192 192c106.039 0 192-85.961 192-192s-85.961-192-192-192zM512 480c88.366 0 160 71.634 160 160s-71.634 160-160 160c-88.366 0-160-71.634-160-160s71.634-160 160-160v0z"/>
    </font>
</defs>
</svg>
